<svg width="33" height="33" viewBox="0 0 33 33" fill="none" xmlns="http://www.w3.org/2000/svg">
<path d="M12.6595 22.625C12.6595 24.558 11.1311 26.125 9.24569 26.125C7.3603 26.125 5.8319 24.558 5.8319 22.625M12.6595 22.625C12.6595 20.692 11.1311 19.125 9.24569 19.125C7.3603 19.125 5.8319 20.692 5.8319 22.625M12.6595 22.625H20.3405M5.8319 22.625H4.125V8.25C4.125 7.49061 4.74061 6.875 5.5 6.875H20.3405V22.625M28.0216 22.625C28.0216 24.558 26.4931 26.125 24.6078 26.125C22.7224 26.125 21.194 24.558 21.194 22.625M28.0216 22.625C28.0216 20.692 26.4931 19.125 24.6078 19.125C22.7224 19.125 21.194 20.692 21.194 22.625M28.0216 22.625H28.875V15.625L24.6078 11.25H20.3405V22.625M21.194 22.625H20.3405" stroke="#05C0E6" stroke-width="2.75" stroke-linecap="round" stroke-linejoin="round"/>
</svg>
