<svg width="100" height="97" viewBox="0 0 100 97" fill="none" xmlns="http://www.w3.org/2000/svg">
<rect x="0.446429" y="0.446474" width="13.3929" height="13.3929" rx="6.69643" stroke="#05ACCD" stroke-width="0.892857"/>
<rect x="3.57141" y="3.57143" width="7.14286" height="7.14286" rx="3.57143" fill="#05ACCD"/>
<rect x="6.91963" y="14.509" width="0.446429" height="19.1964" stroke="#05ACCD" stroke-width="0.446429"/>
<rect x="25" width="50" height="8.03571" rx="4.01786" fill="#05C0E6"/>
<rect x="25" y="13.3928" width="75" height="8.03571" rx="4.01786" fill="#05C0E6"/>
<rect x="0.446429" y="37.9464" width="13.3929" height="13.3929" rx="6.69643" stroke="#05ACCD" stroke-width="0.892857"/>
<rect x="3.57141" y="41.0714" width="7.14286" height="7.14286" rx="3.57143" fill="#05ACCD"/>
<rect x="6.91963" y="52.0089" width="0.446429" height="19.1964" stroke="#05ACCD" stroke-width="0.446429"/>
<rect x="25" y="37.4999" width="50" height="8.03571" rx="4.01786" fill="#05C0E6"/>
<rect x="25" y="50.8927" width="75" height="8.03571" rx="4.01786" fill="#05C0E6"/>
<rect x="0.446429" y="75.4464" width="13.3929" height="13.3929" rx="6.69643" stroke="#EDFBFD" stroke-width="0.892857"/>
<rect x="3.57141" y="78.5714" width="7.14286" height="7.14286" rx="3.57143" fill="#EDFBFD"/>
<rect x="25" y="74.9999" width="50" height="8.03571" rx="4.01786" fill="#EDFBFD"/>
<rect x="25" y="88.3927" width="75" height="8.03571" rx="4.01786" fill="#EDFBFD"/>
</svg>
